<?xml version="1.0" encoding="UTF-8" standalone="no"?>
<!DOCTYPE svg PUBLIC "-//W3C//DTD SVG 1.1//EN" "http://www.w3.org/Graphics/SVG/1.1/DTD/svg11.dtd">
<svg width="100%" height="100%" viewBox="0 0 32 34" version="1.1" xmlns="http://www.w3.org/2000/svg" xmlns:xlink="http://www.w3.org/1999/xlink" xml:space="preserve" xmlns:serif="http://www.serif.com/" style="fill-rule:evenodd;clip-rule:evenodd;stroke-linejoin:round;stroke-miterlimit:2;">
    <g transform="matrix(1,0,0,1,-5,-3.333333)">
        <g transform="matrix(0.041667,0,0,0.041667,0,40)">
            <path d="M309,-389C328.333,-369.667 352,-360 380,-360C408,-360 431.667,-369.667 451,-389L611,-549C630.333,-568.333 640,-592 640,-620C640,-648 630.333,-671.667 611,-691C591.667,-710.333 568,-720 540,-720C512,-720 488.333,-710.333 469,-691C444.333,-699.667 420,-701.667 396,-697C372,-692.333 351.667,-681.667 335,-665C318.333,-648.333 307.667,-628 303,-604C298.333,-580 300.333,-555.667 309,-531C289.667,-511.667 280,-488 280,-460C280,-432 289.667,-408.333 309,-389ZM240,-80L240,-252C202,-286.667 172.5,-327.167 151.5,-373.5C130.5,-419.833 120,-468.667 120,-520C120,-620 155,-705 225,-775C295,-845 380,-880 480,-880C563.333,-880 637.167,-855.5 701.5,-806.5C765.833,-757.5 807.667,-693.667 827,-615L881,-401.33C883.887,-390.89 881.997,-381.39 875.33,-372.83C868.663,-364.277 859.777,-360 848.67,-360L760,-360L760,-226.67C760,-208.337 753.473,-192.64 740.42,-179.58C727.36,-166.527 711.663,-160 693.33,-160L600,-160L600,-80L533.33,-80L533.33,-226.67L693.33,-226.67L693.33,-426.67L805.33,-426.67L762.67,-598.33C746.89,-661.663 712.667,-713.33 660,-753.33C607.333,-793.33 547.333,-813.33 480,-813.33C398.667,-813.33 329.443,-785.11 272.33,-728.67C215.223,-672.223 186.67,-603.437 186.67,-522.31C186.67,-480.343 195.24,-440.477 212.38,-402.71C229.527,-364.943 253.843,-331.373 285.33,-302L306.67,-282L306.67,-80L240,-80Z" style="fill:rgb(225,225,225);fill-rule:nonzero;"/>
        </g>
    </g>
</svg>
