<?xml version="1.0" encoding="UTF-8" standalone="no"?>
<!DOCTYPE svg PUBLIC "-//W3C//DTD SVG 1.1//EN" "http://www.w3.org/Graphics/SVG/1.1/DTD/svg11.dtd">
<svg width="100%" height="100%" viewBox="0 0 34 34" version="1.1" xmlns="http://www.w3.org/2000/svg" xmlns:xlink="http://www.w3.org/1999/xlink" xml:space="preserve" xmlns:serif="http://www.serif.com/" style="fill-rule:evenodd;clip-rule:evenodd;stroke-linejoin:round;stroke-miterlimit:2;">
    <g transform="matrix(1,0,0,1,-5,-5)">
        <g transform="matrix(0.041667,0,0,0.041667,0,40)">
            <path d="M493,-120L493,-120.33L493,-120C462.113,-119.78 425.337,-122.447 382.67,-128C340.003,-133.553 299.223,-142.61 260.33,-155.17C221.443,-167.723 188.333,-184.167 161,-204.5C133.667,-224.833 120,-250 120,-280C120,-250 133.667,-224.833 161,-204.5C188.333,-184.167 221.443,-167.723 260.33,-155.17C299.223,-142.61 340.003,-133.553 382.67,-128C425.337,-122.447 462.113,-119.78 493,-120ZM470,-329.33L470,-330L470,-329.33C438.447,-329.777 409.17,-331.5 382.17,-334.5C355.17,-337.5 330.113,-341.833 307,-347.5C283.887,-353.167 262.33,-359.89 242.33,-367.67C222.33,-375.443 203.777,-384.33 186.67,-394.33C203.777,-384.33 222.33,-375.443 242.33,-367.67C262.33,-359.89 283.887,-353.167 307,-347.5C330.113,-341.833 355.17,-337.5 382.17,-334.5C409.17,-331.5 438.447,-329.777 470,-329.33ZM480,-605C538,-605 597.11,-613.833 657.33,-631.5C717.557,-649.167 754.67,-668.333 768.67,-689C754.223,-709.667 716.943,-728.89 656.83,-746.67C596.723,-764.443 537.78,-773.33 480,-773.33C420.667,-773.33 361.5,-764.72 302.5,-747.5C243.5,-730.28 206.223,-710.78 190.67,-689C206.223,-667.447 243.277,-648.057 301.83,-630.83C360.39,-613.61 419.78,-605 480,-605ZM710,-117.33L743.33,-117.33L743.33,-286L818.67,-210.67L842,-234L726.67,-349.33L611.33,-234L634.67,-210.67L710,-286L710,-117.33ZM726.67,-40C673.557,-40 628.057,-58.833 590.17,-96.5C552.277,-134.167 533.33,-179.557 533.33,-232.67C533.33,-286.223 552.277,-331.943 590.17,-369.83C628.057,-407.723 673.557,-426.67 726.67,-426.67C779.777,-426.67 825.277,-407.723 863.17,-369.83C901.057,-331.943 920,-286.223 920,-232.67C920,-179.557 901.057,-134.167 863.17,-96.5C825.277,-58.833 779.777,-40 726.67,-40ZM471,-187C473,-175 475.89,-163.443 479.67,-152.33C483.443,-141.223 487.887,-130.447 493,-120C462.113,-119.78 425.337,-122.447 382.67,-128C340.003,-133.553 299.223,-142.61 260.33,-155.17C221.443,-167.723 188.333,-184.167 161,-204.5C133.667,-224.833 120,-250 120,-280L120,-680C120,-724 155.167,-761.667 225.5,-793C295.833,-824.333 380.667,-840 480,-840C579.333,-840 664.167,-824.333 734.5,-793C804.833,-761.667 840,-724 840,-680L840,-467C829.553,-472.113 818.777,-476.557 807.67,-480.33C796.557,-484.11 785.11,-487 773.33,-489L773.33,-605C735.557,-583.887 691.113,-567.553 640,-556C588.887,-544.447 535.33,-538.67 479.33,-538.67C422.663,-538.67 368.663,-544.447 317.33,-556C265.997,-567.553 222.443,-583.887 186.67,-605L186.67,-468C222.003,-443.333 266.057,-425.167 318.83,-413.5C371.61,-401.833 425.11,-396 479.33,-396C487.557,-396 495.503,-396.11 503.17,-396.33C510.837,-396.557 518.78,-397.113 527,-398C518.333,-387.78 510.723,-376.89 504.17,-365.33C497.61,-353.777 491.777,-341.777 486.67,-329.33L470,-329.33C406.447,-330.223 352.003,-336.28 306.67,-347.5C261.337,-358.72 221.337,-374.33 186.67,-394.33L186.67,-277.33C190.443,-266.89 201.553,-256.28 220,-245.5C238.447,-234.72 261.003,-225.163 287.67,-216.83C314.337,-208.497 343.723,-201.61 375.83,-196.17C407.943,-190.723 439.667,-187.667 471,-187Z" style="fill:rgb(223,223,223);fill-rule:nonzero;"/>
        </g>
    </g>
</svg>
