<?xml version="1.0" encoding="UTF-8"?>
<svg id="Layer_1" data-name="Layer 1" xmlns="http://www.w3.org/2000/svg" viewBox="0 0 1187.34 316.47">
  <g>
    <path d="M81.55,202.14c-21.96,0-38.83-1.59-50.6-4.78-11.78-3.19-19.88-9.07-24.3-17.66-4.42-8.59-6.64-20.85-6.64-36.79v-17.27l43.3-7.7v12.48c0,12.75,2.48,21.21,7.44,25.37,4.96,4.16,15.23,6.24,30.81,6.24s25.59-1.73,30.55-5.18c4.96-3.45,7.44-8.72,7.44-15.8V.27h43.3v140.78c0,14.34-2.39,25.99-7.17,34.93-4.78,8.94-13.06,15.54-24.84,19.79-11.78,4.25-28.2,6.38-49.27,6.38Z"/>
    <path d="M367.89,0v35.06h-176.11V0h176.11ZM367.89,77.83v35.06l-.27.27-.27-.27-.27.27-.27-.27c-28.87.18-86.86.27-173.98.27l-.27-.27-.53.27-.27-.27v-35.06h176.11ZM367.89,164.42v34.8l-.27.27-.27-.27-.27.27-.27-.27c-28.87.18-86.86.27-173.98.27l-.27-.27-.53.27-.27-.27v-34.8h176.11Z"/>
    <path d="M610.41,199.48h-64.28l-105.98-141.31v141.31h-43.3V.27h51.8l118.47,158.05V.27h43.3l.27.27-.27.27.27.53-.27.27v197.89Z"/>
    <path d="M747.73,199.48h-43.3V35.59h-73.05V.27h189.39v35.33h-73.05v163.89Z"/>
    <path d="M976.7,199.48h-43.3V.27h43.3l.27.27-.27.27.27.53-.27.27c0,59.15.04,94.43.13,105.85.09,11.42.13,41.75.13,90.98l-.27.27.27.53-.27.27Z"/>
    <path d="M1114.3,199.48h-43.3V35.59h-73.05V.27h189.39v35.33h-73.05v163.89Z"/>
  </g>
  <g>
    <path d="M6.06,281.17c1.58-2.99,3.87-4.99,6.87-6.01,3-1.02,7.04-1.53,12.12-1.53h11.59c4.73,0,8.56.31,11.49.94,2.92.63,5.23,1.87,6.92,3.72,1.69,1.86,2.63,4.57,2.82,8.14.04.71-.14,1.26-.55,1.65-.4.38-.98.58-1.73.58h-5.06c-.71,0-1.25-.18-1.62-.54-.37-.36-.61-.9-.7-1.63-.17-1.64-.69-2.85-1.57-3.63-.87-.78-2.06-1.28-3.57-1.5-1.5-.22-3.65-.33-6.43-.33h-11.59c-3.37,0-5.85.36-7.43,1.07s-2.69,2.01-3.32,3.88c-.63,1.87-.95,4.72-.95,8.54v1.07c0,3.82.31,6.66.93,8.53s1.73,3.16,3.34,3.88c1.6.72,4.08,1.08,7.43,1.08h11.59c2.88,0,5.05-.09,6.51-.28s2.63-.65,3.49-1.38c.86-.73,1.38-1.91,1.55-3.53.1-.73.33-1.28.7-1.63.37-.36.92-.54,1.62-.54h5.06c.75,0,1.32.19,1.73.58.4.38.58.93.55,1.65-.19,3.57-1.13,6.26-2.82,8.06-1.69,1.8-3.98,3-6.89,3.59-2.9.59-6.74.88-11.52.88h-11.59c-5,0-9.02-.54-12.05-1.63-3.03-1.09-5.34-3.13-6.93-6.13-1.59-3-2.39-7.37-2.39-13.12v-1.07c0-5.91.79-10.36,2.37-13.35Z"/>
    <path d="M143.94,314.89c-2.94-1.05-5-3.03-6.17-5.93-1.17-2.9-1.75-7.36-1.75-13.38v-1.07c0-6.18.58-10.71,1.74-13.6,1.16-2.89,3.2-4.83,6.11-5.81,2.91-.98,7.42-1.47,13.51-1.47h11.56c6.1,0,10.6.49,13.51,1.47,2.91.98,4.95,2.92,6.11,5.81,1.16,2.89,1.74,7.43,1.74,13.6v1.07c0,6.02-.58,10.47-1.75,13.38-1.17,2.9-3.23,4.88-6.17,5.93-2.94,1.05-7.42,1.58-13.44,1.58h-11.56c-6.02,0-10.5-.53-13.44-1.58ZM176.36,308.25c1.67-.55,2.8-1.74,3.39-3.55.59-1.81.89-4.88.89-9.2v-.88c0-4.46-.3-7.6-.89-9.41-.59-1.81-1.7-2.96-3.32-3.45-1.62-.49-4.44-.74-8.47-.74h-9.57c-4.03,0-6.85.25-8.47.74-1.62.49-2.73,1.64-3.34,3.45-.6,1.81-.91,4.95-.91,9.41v.88c0,4.32.3,7.39.91,9.2.6,1.81,1.73,3,3.39,3.55,1.66.55,4.46.83,8.41.83h9.57c3.93,0,6.73-.28,8.4-.83Z"/>
    <path d="M270.76,275.04c.39-.37.96-.55,1.71-.55h10.64c.65,0,1.21.07,1.67.2.46.13.85.39,1.18.76l30.19,32.72h.06v-31.54c0-.7.2-1.23.59-1.59.39-.37.96-.55,1.71-.55h5.06c.75,0,1.32.18,1.71.55.39.37.59.9.59,1.59v36.84c0,.7-.2,1.23-.59,1.59-.39.37-.96.55-1.71.55h-10.64c-.63,0-1.18-.07-1.65-.21-.47-.14-.87-.39-1.19-.75l-30.19-32.83h-.06v31.65c0,.7-.2,1.23-.59,1.59-.39.37-.96.55-1.71.55h-5.06c-.75,0-1.32-.18-1.71-.55-.39-.37-.59-.9-.59-1.59v-36.84c0-.7.2-1.23.59-1.59Z"/>
    <path d="M449.76,299.9c-.45-.68-1.38-1.17-2.8-1.46-1.42-.29-3.79-.46-7.1-.5l-15.99-.21c-5.19-.07-9.07-.54-11.63-1.39-2.56-.86-4.27-2.13-5.12-3.83-.85-1.7-1.28-4.1-1.28-7.2s.55-5.68,1.64-7.3c1.09-1.62,3.09-2.75,5.98-3.4,2.89-.65,7.28-.98,13.17-.98h12.31c5.23,0,9.22.27,11.95.8s4.75,1.58,6.05,3.12c1.3,1.54,2.05,3.88,2.24,7,.04.71-.14,1.26-.55,1.65-.4.38-.98.58-1.73.58h-5.03c-.63,0-1.1-.13-1.41-.4-.31-.27-.58-.71-.81-1.34-.06-.14-.11-.29-.14-.43-.17-1.05-.67-1.83-1.48-2.34-.81-.51-1.94-.84-3.36-1-1.43-.16-3.42-.24-5.97-.24h-11.79c-3.43,0-5.9.11-7.42.32s-2.56.67-3.13,1.35c-.58.69-.86,1.83-.86,3.41,0,1.39.21,2.4.62,3.03.41.62,1.26,1.06,2.53,1.31,1.27.25,3.36.39,6.25.43l17.14.21c5.31.07,9.24.54,11.79,1.39,2.55.86,4.23,2.13,5.05,3.83.81,1.7,1.22,4.17,1.22,7.42,0,3.43-.49,6.02-1.48,7.78-.99,1.76-2.89,3.03-5.72,3.8-2.83.78-7.13,1.16-12.9,1.16h-13.46c-5.16,0-9.16-.33-12-1-2.85-.67-4.95-1.87-6.31-3.61-1.36-1.74-2.14-4.29-2.33-7.64-.04-.71.14-1.26.55-1.65.4-.38.98-.58,1.73-.58h5.06c.59,0,1.04.13,1.35.39.31.26.56.68.78,1.27.1.16.16.33.2.51.17,1.18.68,2.13,1.51,2.85.83.72,2,1.25,3.51,1.58s3.49.5,5.97.5h13.17c3.26,0,5.63-.17,7.1-.5,1.48-.33,2.45-.89,2.92-1.69s.7-2.04.7-3.74c0-1.5-.23-2.59-.68-3.27Z"/>
    <path d="M546.27,314.89c-2.94-1.05-5-3.03-6.17-5.93-1.17-2.9-1.75-7.36-1.75-13.38v-18.96c0-.7.2-1.23.59-1.59.39-.37.96-.55,1.71-.55h5.06c.75,0,1.32.18,1.71.55.39.37.59.9.59,1.59v18.96c0,4.14.31,7.14.93,8.98s1.71,3.06,3.26,3.64,4.05.87,7.5.87h10.41c3.45,0,5.95-.29,7.5-.87s2.64-1.79,3.26-3.64.93-4.84.93-8.98v-18.96c0-.7.2-1.23.59-1.59.39-.37.96-.55,1.71-.55h5.06c.75,0,1.32.18,1.71.55.39.37.59.9.59,1.59v18.96c0,6.02-.59,10.47-1.75,13.38-1.17,2.9-3.23,4.88-6.17,5.93-2.94,1.05-7.42,1.58-13.44,1.58h-10.41c-6.02,0-10.5-.53-13.44-1.58Z"/>
    <path d="M672.16,275.04c.39-.37.96-.55,1.71-.55h5.06c.75,0,1.32.18,1.71.55.39.37.59.9.59,1.59v32.08h28.52c.75,0,1.32.18,1.71.55.39.37.59.9.59,1.59v2.62c0,.7-.2,1.23-.59,1.59s-.96.55-1.71.55h-35.88c-.75,0-1.32-.18-1.71-.55-.39-.37-.59-.9-.59-1.59v-36.84c0-.7.2-1.23.59-1.59Z"/>
    <path d="M777.86,281.1c-.33-.2-.55-.54-.68-1.02-.12-.48-.19-1.2-.19-2.14s.06-1.66.19-2.13c.12-.47.35-.81.68-1.02.33-.21.8-.31,1.44-.31h45.08c.63,0,1.11.1,1.44.31.33.21.55.54.68,1.02.12.47.19,1.18.19,2.13s-.06,1.66-.19,2.14c-.12.48-.35.82-.68,1.02-.33.2-.81.29-1.44.29h-17.71v32.08c0,.7-.2,1.23-.59,1.59-.39.37-.96.55-1.71.55h-5.06c-.75,0-1.32-.18-1.71-.55-.39-.37-.59-.9-.59-1.59v-32.08h-17.71c-.63,0-1.11-.1-1.44-.29Z"/>
    <path d="M906.21,315.06c-.39-.37-.59-.9-.59-1.59v-36.84c0-.7.2-1.23.59-1.59.39-.37.96-.55,1.71-.55h5.06c.75,0,1.32.18,1.71.55.39.37.59.9.59,1.59v36.84c0,.7-.2,1.23-.59,1.59-.39.37-.96.55-1.71.55h-5.06c-.75,0-1.32-.18-1.71-.55Z"/>
    <path d="M997.58,275.04c.39-.37.96-.55,1.71-.55h10.64c.65,0,1.21.07,1.67.2s.85.39,1.18.76l30.19,32.72h.06v-31.54c0-.7.2-1.23.59-1.59.39-.37.96-.55,1.71-.55h5.06c.75,0,1.32.18,1.71.55.39.37.59.9.59,1.59v36.84c0,.7-.2,1.23-.59,1.59s-.96.55-1.71.55h-10.64c-.63,0-1.18-.07-1.65-.21s-.87-.39-1.19-.75l-30.19-32.83h-.06v31.65c0,.7-.2,1.23-.59,1.59-.39.37-.96.55-1.71.55h-5.06c-.75,0-1.32-.18-1.71-.55-.39-.37-.59-.9-.59-1.59v-36.84c0-.7.2-1.23.59-1.59Z"/>
    <path d="M1134.28,280.91c1.16-2.89,3.2-4.83,6.11-5.81,2.91-.98,7.42-1.47,13.51-1.47h10.81c5.9,0,10.31.27,13.21.82,2.9.54,4.97,1.58,6.2,3.09,1.23,1.52,1.93,3.87,2.1,7.04.04.7-.14,1.24-.55,1.62s-.98.58-1.72.58h-4.77c-.71,0-1.25-.17-1.61-.52-.36-.35-.6-.89-.72-1.62-.13-1.09-.55-1.89-1.25-2.4-.7-.51-1.68-.83-2.95-.98-1.27-.14-3.16-.22-5.69-.24h-13.05c-3.37,0-5.85.36-7.43,1.07-1.58.71-2.69,2.01-3.32,3.88-.63,1.87-.95,4.72-.95,8.54v1.07c0,3.82.31,6.66.93,8.53s1.73,3.16,3.33,3.88c1.6.72,4.08,1.08,7.43,1.08h12.74c2.72,0,4.81-.17,6.25-.51s2.56-1.1,3.33-2.28,1.17-3.07,1.17-5.68v-1.58h-14.98c-.75,0-1.32-.18-1.71-.55-.39-.37-.59-.9-.59-1.59v-2.2c0-.7.2-1.23.59-1.59.39-.37.96-.55,1.71-.55h22.05c.75,0,1.32.18,1.71.55.39.37.59.9.59,1.59v5.92c0,4.68-.58,8.12-1.74,10.34-1.16,2.21-3.11,3.69-5.84,4.42-2.73.73-6.92,1.1-12.55,1.1h-12.74c-6.02,0-10.5-.53-13.44-1.58-2.94-1.05-5-3.03-6.17-5.93-1.17-2.9-1.75-7.36-1.75-13.38v-1.07c0-6.18.58-10.71,1.74-13.6Z"/>
  </g>
</svg>